# xmcd
#
# Track frame offsets: 
#        150
#        21192
#        33594
#
# Disc length: 736 seconds
#
# Revision: 0
# Processed by: cddbd v1.5.2PL0 Copyright (c) Steve Scherf et al.
# Submitted via: ExactAudioCopy v0.99pb5
#
DISCID=1d02de03
DTITLE=Open Arms Open Heart - Demo
DYEAR=2007
DGENRE=Southern Gospel
TTITLE0=Look What The Lord Has Done
TTITLE1=I'm Settin' My House In Order
TTITLE2=The Lord Is My Best Friend
EXTD=
EXTT0=
EXTT1=
EXTT2=
PLAYORDER=
